<?xml version="1.0" encoding="utf-8"?>
<!-- Generator: Adobe Illustrator 21.1.0, SVG Export Plug-In . SVG Version: 6.00 Build 0)  -->
<svg version="1.1" id="Layer_1" xmlns="http://www.w3.org/2000/svg" xmlns:xlink="http://www.w3.org/1999/xlink" x="0px" y="0px"
	 viewBox="0 0 195.7 31.3" style="enable-background:new 0 0 195.7 31.3;" xml:space="preserve">
<style type="text/css">
	.st0{fill:#FFFFFF;}
	.st1{fill:none;stroke:#FFFFFF;stroke-width:2;stroke-miterlimit:10;}
</style>
<path class="st0" d="M15.7,7.2h2.2V11h2.4v2.2h-2.4v6c0,0.9,0.6,1.5,1.4,1.5c0.6,0,1.2-0.2,1.2-0.2v2.2c0,0-0.7,0.2-1.7,0.2
	c-2.2,0-3.3-1.2-3.3-3.6v-6h-2.2V11h1.2c0.7,0,1.2-0.5,1.2-1.4V7.2z"/>
<path class="st0" d="M31.9,11l2.6,7.9l2.6-7.9h2.5l-3.9,11.5h-2.3l-2.6-7.7l-2.6,7.7h-2.3L21.9,11h2.5l2.6,7.9l2.6-7.9H31.9z"/>
<path class="st0" d="M46.8,10.8c3.2,0,6,2.8,6,6c0,3.2-2.8,6-6,6s-6-2.8-6-6C40.8,13.6,43.6,10.8,46.8,10.8z M46.8,13
	c-1.9,0-3.6,1.7-3.6,3.8c0,2.2,1.7,3.8,3.6,3.8c1.9,0,3.6-1.7,3.6-3.8C50.4,14.6,48.7,13,46.8,13z"/>
<path class="st0" d="M64,12.4V5.8h2.4v16.7H64v-1.3c0,0-1.4,1.6-3.7,1.6c-3,0-5.6-2.6-5.6-6c0-3.3,2.6-6,5.6-6
	C62.6,10.8,64,12.4,64,12.4z M64,16.8c0-2.2-1.7-3.8-3.5-3.8c-1.8,0-3.5,1.7-3.5,3.8c0,2.2,1.7,3.8,3.5,3.8
	C62.4,20.6,64,18.9,64,16.8z"/>
<path class="st0" d="M71.7,17.6c0.2,1.6,1.7,3,3.6,3c2.3,0,3.5-1.8,3.5-1.8l1.6,1.6c0,0-1.8,2.4-5,2.4c-3.2,0-6-2.8-6-6.1
	c0-3.2,2.6-5.9,5.9-5.9c3.2,0,5.6,2.4,5.6,5.6c0,0.7-0.1,1.2-0.1,1.2H71.7z M71.8,15.6h6.7c-0.3-1.6-1.5-2.8-3.3-2.8
	S72.2,14,71.8,15.6z"/>
<path class="st0" d="M85.1,17.6c0.2,1.6,1.7,3,3.6,3c2.3,0,3.5-1.8,3.5-1.8l1.6,1.6c0,0-1.8,2.4-5,2.4c-3.2,0-6-2.8-6-6.1
	c0-3.2,2.6-5.9,5.9-5.9s5.6,2.4,5.6,5.6c0,0.7-0.1,1.2-0.1,1.2H85.1z M85.2,15.6h6.7c-0.3-1.6-1.5-2.8-3.3-2.8S85.6,14,85.2,15.6z"
	/>
<g>
	<path class="st0" d="M106.7,22.2c2.5,0,3.8-2.2,3.8-2.2l0.6,0.5c0,0-1.6,2.4-4.4,2.4c-3,0-5.6-2.6-5.6-6c0-3.3,2.6-6,5.6-6
		c2.9,0,4.4,2.4,4.4,2.4l-0.6,0.5c0,0-1.3-2.2-3.8-2.2c-2.6,0-4.9,2.3-4.9,5.3C101.8,20,104.1,22.2,106.7,22.2z"/>
	<path class="st0" d="M119.3,11.7c-2.4,0-4.2,1.8-4.2,4.5v6.5h-0.7V11.2h0.7v2.4c0,0,1-2.6,4.2-2.6h0.5v0.7H119.3z"/>
	<path class="st0" d="M122.3,17.3c0.1,2.8,2.3,4.9,4.9,4.9c2.6,0,3.8-2.2,3.8-2.2l0.6,0.5c0,0-1.5,2.4-4.4,2.4c-3,0-5.6-2.6-5.6-6
		c0-3.3,2.6-6,5.4-6c2.8,0,5.3,2.5,5.3,6v0.4H122.3z M122.3,16.6h9.2c-0.1-2.9-2.2-4.9-4.5-4.9S122.3,14,122.3,16.6z"/>
	<path class="st0" d="M142.6,15.5v-0.1c0-2.3-1.4-3.7-3.5-3.7c-2.3,0-3.5,1.8-3.5,1.8l-0.5-0.5c0,0,1.3-2,3.9-2
		c2.4,0,4.2,1.8,4.2,4.4v7.3h-0.7v-2.4c0,0-1.1,2.6-4.3,2.6c-2.3,0-3.8-1.6-3.8-3.2c0-1.8,1.2-2.9,3.5-3.3L142.6,15.5z M142.6,17.8
		v-1.6l-4.7,0.8c-1.8,0.3-2.8,1.3-2.8,2.6c0,1.3,1.2,2.5,3.1,2.5C140.7,22.2,142.6,20.3,142.6,17.8z"/>
	<path class="st0" d="M148.6,7.4h0.7v3.8h2.6v0.7h-2.6v8c0,1.4,0.8,2.3,2,2.3c0.8,0,1.4-0.4,1.4-0.4v0.7c0,0-0.6,0.4-1.4,0.4
		c-1.7,0-2.8-1.1-2.8-3v-8h-2.4v-0.7h1.7c0.5,0,0.7-0.2,0.7-0.8V7.4z"/>
	<path class="st0" d="M156.1,7.6c-0.4,0-0.6-0.2-0.6-0.6c0-0.4,0.2-0.6,0.6-0.6c0.4,0,0.6,0.2,0.6,0.6
		C156.7,7.4,156.5,7.6,156.1,7.6z M155.8,11.2h0.7v11.5h-0.7V11.2z"/>
	<path class="st0" d="M164,22.7l-4.7-11.5h0.7l4.3,10.5l4.3-10.5h0.7l-4.7,11.5H164z"/>
	<path class="st0" d="M172,17.3c0.1,2.8,2.3,4.9,4.9,4.9c2.6,0,3.8-2.2,3.8-2.2l0.6,0.5c0,0-1.5,2.4-4.4,2.4c-3,0-5.6-2.6-5.6-6
		c0-3.3,2.6-6,5.4-6c2.8,0,5.3,2.5,5.3,6v0.4H172z M172,16.6h9.2c-0.1-2.9-2.2-4.9-4.5-4.9S172,14,172,16.6z"/>
</g>
<polyline class="st1" points="188.9,1 194.7,1 194.7,30.3 188.9,30.3 "/>
<polyline class="st1" points="6.9,1 1,1 1,30.3 6.9,30.3 "/>
</svg>
